<svg width="62" height="61" viewBox="0 0 62 61" fill="none" xmlns="http://www.w3.org/2000/svg">
<path d="M61.4433 23.421C60.8824 25.1027 60.1792 26.7574 59.8062 28.4823C59.5378 29.6754 59.3365 31.1519 59.8062 32.1831C62.0338 37.1337 61.5211 41.0019 57.7423 44.8431C53.6252 49.0271 49.5055 53.2111 45.3375 57.3357C41.5801 61.0635 37.6429 61.7329 32.9676 59.3926C31.4835 58.6502 30.2596 58.7069 28.7889 59.4519C24.3256 61.7113 20.1657 60.9987 16.5881 57.4382C12.3744 53.2434 8.18675 49.0217 4.02499 44.7729C0.318589 40.9938 -0.188656 37.1148 1.97721 32.3046C2.46712 31.0539 2.46712 29.6628 1.97721 28.4121C-0.169869 23.5533 0.34811 19.6878 4.04109 15.9411C8.15633 11.7589 12.2895 7.59288 16.4405 3.44308C20.2757 -0.379204 24.1485 -0.902873 29.0546 1.2971C30.3031 1.77564 31.685 1.7631 32.9247 1.26201C37.6832 -0.875881 41.6445 -0.338709 45.3375 3.34591C49.5458 7.5461 53.7192 11.7841 57.914 15.9951C59.9001 18.0196 61.183 20.3572 61.4433 23.421ZM30.9762 57.1629C31.8163 56.5528 32.6375 56.1075 33.2709 55.4758C40.8501 47.9014 48.4123 40.3081 55.9575 32.696C57.745 30.8928 57.7879 29.8805 56.038 28.1071C48.3944 20.3689 40.7311 12.6569 33.0482 4.97091C31.6177 3.52946 30.2543 3.48358 28.805 4.94393C21.0916 12.7181 13.3728 20.4859 5.64872 28.2474C4.22091 29.6862 4.29337 31.1168 5.71582 32.5475C13.3916 40.2497 21.0657 47.9509 28.7379 55.6513C29.3176 56.2343 30.112 56.5906 30.9762 57.1656V57.1629Z" fill="#1B1B1B"/>
</svg>
