<svg width="61" height="61" viewBox="0 0 61 61" fill="none" xmlns="http://www.w3.org/2000/svg">
<path d="M31.1128 60.7551C26.6082 60.7551 22.1052 60.7551 17.6037 60.7551C15.2565 60.7551 13.7078 59.31 13.6713 57.0242C13.634 54.9384 13.634 52.8534 13.6713 50.7691C13.7127 48.5093 15.2686 47.0453 17.6232 47.0406C25.98 47.028 34.3399 47.028 42.7032 47.0406C45.6495 47.0406 47.0203 45.7183 47.0228 42.8752C47.0252 40.0322 47.0228 37.1301 47.0228 34.2588C47.0228 31.8101 48.4959 30.3484 51.0015 30.3154C52.9494 30.2918 54.8974 30.2847 56.8453 30.3154C59.2681 30.3532 60.6999 31.7133 60.7266 34.0746C60.7688 37.6543 60.7688 41.2341 60.7266 44.8139C60.7096 47.1752 59.2657 48.5329 56.8551 48.5589C55.4355 48.5731 54.0135 48.5448 52.5939 48.5589C49.7913 48.6061 48.5227 49.8624 48.5178 52.5732C48.5178 53.99 48.5178 55.4067 48.5178 56.8235C48.5178 59.395 47.1153 60.7669 44.4953 60.7693L31.1128 60.7551Z" fill="#1B1B1B"/>
<path d="M29.6284 0.0073209C34.0893 0.0073209 38.5501 0.0073209 43.0085 0.0073209C45.6455 0.0073209 47.0139 1.37216 47.0261 3.96253C47.0383 5.88936 47.0261 7.81619 47.0261 9.74303C47.0261 12.2602 45.5505 13.6959 42.9695 13.6982C34.6566 13.6982 26.3437 13.6982 18.0308 13.6982C15.0187 13.6982 13.7014 15.0064 13.699 17.9628C13.699 20.8341 13.699 23.7055 13.699 26.5745C13.682 28.9547 12.2843 30.2959 9.85666 30.303C7.748 30.303 5.63933 30.3243 3.5258 30.303C1.50967 30.2771 0.0560038 28.9335 0.0340892 26.9712C-0.0113631 23.1553 -0.0113631 19.341 0.0340892 15.5283C0.0283727 14.6905 0.355106 13.8827 0.946629 13.2722C1.53815 12.6616 2.34915 12.295 3.21169 12.2484C4.86502 12.1162 6.53053 12.1705 8.1936 12.1539C10.7357 12.1327 12.182 10.7371 12.1966 8.28374C12.1966 6.74888 12.1966 5.21403 12.1966 3.68153C12.2186 1.42175 13.6576 0.0214839 16 0.00967732C20.5461 -0.00921322 25.0873 0.00495958 29.6284 0.0073209Z" fill="#1B1B1B"/>
<path d="M37.3252 30.4001C37.3252 31.4627 37.352 32.5253 37.3252 33.5879C37.2594 35.6635 35.7425 37.1582 33.6289 37.1936C31.5154 37.229 29.4067 37.2314 27.2981 37.1936C25.1894 37.1558 23.6457 35.7131 23.5823 33.6186C23.5239 31.4155 23.5263 29.21 23.5823 27.0069C23.5901 26.0502 23.9891 25.1355 24.6917 24.4639C25.3943 23.7922 26.3432 23.4185 27.3297 23.4248C29.3978 23.3949 31.4667 23.3949 33.5364 23.4248C34.5202 23.414 35.4688 23.7798 36.1763 24.4429C36.8838 25.106 37.2931 26.0129 37.3155 26.9668C37.369 28.1049 37.3155 29.2478 37.3155 30.3883L37.3252 30.4001Z" fill="#1B1B1B"/>
</svg>
