<svg width="10" height="16" viewBox="0 0 10 16" fill="none" xmlns="http://www.w3.org/2000/svg">
<path fill-rule="evenodd" clip-rule="evenodd" d="M8.92327 7.51411C9.05202 7.64301 9.12434 7.81775 9.12434 7.99994C9.12434 8.18213 9.05202 8.35687 8.92327 8.48577L2.04827 15.3608C1.91795 15.4822 1.74557 15.5483 1.56746 15.5452C1.38935 15.542 1.21942 15.4699 1.09345 15.3439C0.967492 15.218 0.895339 15.048 0.892197 14.8699C0.889054 14.6918 0.955168 14.5194 1.07661 14.3891L7.46577 7.99994L1.07661 1.61077C0.955168 1.48045 0.889054 1.30807 0.892197 1.12996C0.895339 0.951852 0.967492 0.781916 1.09345 0.655954C1.21942 0.529992 1.38935 0.457839 1.56746 0.454697C1.74557 0.451554 1.91795 0.517667 2.04827 0.639107L8.92327 7.51411Z" fill="#BCBCBC"/>
</svg>
