<svg width="18" height="18" viewBox="0 0 18 18" fill="none" xmlns="http://www.w3.org/2000/svg">
<path fill-rule="evenodd" clip-rule="evenodd" d="M4.35894 1.01172C2.51005 1.01172 1.01123 2.51054 1.01123 4.35943V13.2867C1.01123 15.1355 2.51005 16.6344 4.35894 16.6344H13.2862C15.1351 16.6344 16.6338 15.1355 16.6338 13.2867V4.35943C16.6338 2.51054 15.1351 1.01172 13.2862 1.01172H4.35894ZM14.2498 4.36428C14.2498 4.89684 13.8181 5.32857 13.2856 5.32857C12.753 5.32857 12.3213 4.89684 12.3213 4.36428C12.3213 3.83171 12.753 3.4 13.2856 3.4C13.8181 3.4 14.2498 3.83171 14.2498 4.36428ZM8.82272 6.14861C7.34571 6.14861 6.14836 7.34597 6.14836 8.82297C6.14836 10.3 7.34571 11.4973 8.82272 11.4973C10.2997 11.4973 11.4971 10.3 11.4971 8.82297C11.4971 7.34597 10.2997 6.14861 8.82272 6.14861ZM4.86264 8.82297C4.86264 6.63588 6.63563 4.86289 8.82272 4.86289C11.0098 4.86289 12.7828 6.63588 12.7828 8.82297C12.7828 11.0101 11.0098 12.783 8.82272 12.783C6.63563 12.783 4.86264 11.0101 4.86264 8.82297Z" fill="white"/>
</svg>
