<svg width="42" height="42" viewBox="0 0 42 42" fill="none" xmlns="http://www.w3.org/2000/svg">
<circle cx="21" cy="21" r="21" fill="#4C4B4B"/>
<path fill-rule="evenodd" clip-rule="evenodd" d="M16.3589 13.0117C14.5101 13.0117 13.0112 14.5105 13.0112 16.3594V25.2867C13.0112 27.1355 14.5101 28.6344 16.3589 28.6344H25.2862C27.1351 28.6344 28.6338 27.1355 28.6338 25.2867V16.3594C28.6338 14.5105 27.1351 13.0117 25.2862 13.0117H16.3589ZM26.2498 16.3643C26.2498 16.8968 25.8181 17.3286 25.2856 17.3286C24.753 17.3286 24.3213 16.8968 24.3213 16.3643C24.3213 15.8317 24.753 15.4 25.2856 15.4C25.8181 15.4 26.2498 15.8317 26.2498 16.3643ZM20.8227 18.1486C19.3457 18.1486 18.1484 19.346 18.1484 20.823C18.1484 22.3 19.3457 23.4973 20.8227 23.4973C22.2997 23.4973 23.4971 22.3 23.4971 20.823C23.4971 19.346 22.2997 18.1486 20.8227 18.1486ZM16.8626 20.823C16.8626 18.6359 18.6356 16.8629 20.8227 16.8629C23.0098 16.8629 24.7828 18.6359 24.7828 20.823C24.7828 23.0101 23.0098 24.783 20.8227 24.783C18.6356 24.783 16.8626 23.0101 16.8626 20.823Z" fill="white"/>
</svg>
