<svg width="42" height="42" viewBox="0 0 42 42" fill="none" xmlns="http://www.w3.org/2000/svg">
<circle cx="21" cy="21" r="21" fill="#4C4B4B"/>
<g clip-path="url(#clip0_790_18)">
<path fill-rule="evenodd" clip-rule="evenodd" d="M15.7458 15.0363C16.079 14.6928 16.2637 14.232 16.26 13.7535C16.2427 13.2892 16.0486 12.8492 15.7176 12.5233C15.3866 12.1973 14.9436 12.0102 14.4791 12C14.0133 12.01 13.5688 12.1967 13.2355 12.5223C12.9023 12.8479 12.7053 13.288 12.6846 13.7535C12.6913 14.2312 12.8813 14.6881 13.2152 15.0297C13.5492 15.3714 14.0017 15.5716 14.4791 15.5891C14.9576 15.5784 15.4126 15.3798 15.7458 15.0363ZM14.1456 17.9541C13.3916 17.9371 12.8764 17.9254 12.8764 18.8495V29.1238C12.8764 30.0288 13.3677 30.01 14.0756 29.9832C14.2036 29.9783 14.3386 29.9731 14.4791 29.9731C14.6199 29.9731 14.7549 29.9783 14.8825 29.9832C15.5871 30.01 16.0682 30.0284 16.0682 29.1238V18.8495C16.0682 17.9256 15.5637 17.9371 14.8125 17.9541C14.7061 17.9565 14.5947 17.9591 14.4791 17.9591C14.3637 17.9591 14.2523 17.9566 14.1456 17.9541ZM19.3971 17.9728C19.0546 18.0413 18.8354 18.2605 18.8354 18.8495V29.1238C18.8354 30.0279 19.3062 30.0102 20.0155 29.9832C20.1444 29.9783 20.2812 29.9731 20.4245 29.9731C20.5676 29.9731 20.7045 29.9783 20.8337 29.9832C21.5464 30.0102 22.0273 30.0283 22.0273 29.1238V23.6442C22 23.3642 22.0326 23.0816 22.1228 22.8151C22.2129 22.5486 22.3587 22.3043 22.5504 22.0984C22.742 21.8925 22.9753 21.7296 23.2346 21.6206C23.494 21.5116 23.7735 21.4589 24.0548 21.466C24.3373 21.4493 24.6202 21.4935 24.8841 21.5958C25.1481 21.698 25.3868 21.8559 25.5844 22.0586C25.7819 22.2613 25.9335 22.5042 26.0289 22.7707C26.1242 23.0372 26.1611 23.3211 26.137 23.6031V29.0826C26.137 29.9869 26.6079 29.969 27.3171 29.9421C27.446 29.9373 27.5828 29.932 27.7261 29.932C27.8694 29.932 28.0062 29.9373 28.1352 29.9421C28.8444 29.969 29.3152 29.9869 29.3152 29.0826V22.0688C29.3413 21.4929 29.2459 20.918 29.0352 20.3814C28.8246 19.8448 28.5034 19.3585 28.0926 18.9541C27.6817 18.5497 27.1904 18.2363 26.6506 18.0342C26.1107 17.8321 25.5343 17.7458 24.9589 17.781C24.3729 17.7277 23.7831 17.8257 23.2459 18.0655C22.7086 18.3054 22.2418 18.6791 21.8903 19.1509C21.904 18.644 21.7396 17.9728 21.3286 17.9728C21.2108 17.9728 21.0299 17.9672 20.8237 17.9607C20.3108 17.9448 19.6414 17.9239 19.3971 17.9728Z" fill="white"/>
</g>
<defs>
<clipPath id="clip0_790_18">
<rect width="18" height="18" fill="white" transform="translate(12 12)"/>
</clipPath>
</defs>
</svg>
