<svg width="18" height="18" viewBox="0 0 18 18" fill="none" xmlns="http://www.w3.org/2000/svg">
<path d="M17.4516 4.7395C17.2487 3.97561 16.651 3.37399 15.892 3.16982C14.5164 2.79883 9.00018 2.79883 9.00018 2.79883C9.00018 2.79883 3.48402 2.79883 2.10834 3.16982C1.34939 3.37402 0.751654 3.97561 0.548782 4.7395C0.180176 6.12409 0.180176 9.01292 0.180176 9.01292C0.180176 9.01292 0.180176 11.9017 0.548782 13.2863C0.751654 14.0502 1.34939 14.6268 2.10834 14.8309C3.48402 15.2019 9.00018 15.2019 9.00018 15.2019C9.00018 15.2019 14.5163 15.2019 15.892 14.8309C16.651 14.6268 17.2487 14.0502 17.4516 13.2863C17.8202 11.9017 17.8202 9.01292 17.8202 9.01292C17.8202 9.01292 17.8202 6.12409 17.4516 4.7395ZM7.19607 11.6358V6.39008L11.8065 9.01298L7.19607 11.6358Z" fill="white"/>
</svg>
