<svg width="42" height="42" viewBox="0 0 42 42" fill="none" xmlns="http://www.w3.org/2000/svg">
<circle cx="21" cy="21" r="21" fill="#4C4B4B"/>
<path d="M29.4516 16.7395C29.2487 15.9756 28.651 15.374 27.892 15.1698C26.5164 14.7988 21.0002 14.7988 21.0002 14.7988C21.0002 14.7988 15.484 14.7988 14.1083 15.1698C13.3494 15.374 12.7517 15.9756 12.5488 16.7395C12.1802 18.1241 12.1802 21.0129 12.1802 21.0129C12.1802 21.0129 12.1802 23.9017 12.5488 25.2863C12.7517 26.0502 13.3494 26.6268 14.1083 26.8309C15.484 27.2019 21.0002 27.2019 21.0002 27.2019C21.0002 27.2019 26.5163 27.2019 27.892 26.8309C28.651 26.6268 29.2487 26.0502 29.4516 25.2863C29.8202 23.9017 29.8202 21.0129 29.8202 21.0129C29.8202 21.0129 29.8202 18.1241 29.4516 16.7395ZM19.1961 23.6358V18.3901L23.8065 21.013L19.1961 23.6358Z" fill="white"/>
</svg>
