<svg width="119" height="52" viewBox="0 0 119 52" fill="none" xmlns="http://www.w3.org/2000/svg">
<path d="M58.4912 43.1226C58.4829 43.1098 58.4775 43.0953 58.4754 43.0801C58.4733 43.065 58.4745 43.0496 58.479 43.0349C58.4834 43.0203 58.491 43.0068 58.5012 42.9955C58.5114 42.9841 58.524 42.9751 58.5381 42.969C59.3681 42.6184 60.1499 42.1631 60.8645 41.6142C62.4218 40.4187 63.5371 38.7391 64.0349 36.8401C64.2914 35.8634 64.4191 34.8573 64.4148 33.8475C64.4361 32.4156 64.174 30.9937 63.6437 29.6635C63.1293 28.4284 62.3153 27.341 61.2752 26.4996C60.2259 25.6427 58.8921 24.9815 57.3094 24.532C55.7266 24.0826 53.8641 23.8627 51.7366 23.8627H35.5047C35.4769 23.8627 35.4501 23.8738 35.4304 23.8935C35.4107 23.9132 35.3997 23.9399 35.3997 23.9678V51.8755C35.3997 51.9034 35.4107 51.9301 35.4304 51.9498C35.4501 51.9695 35.4769 51.9806 35.5047 51.9806H41.4866C41.5145 51.9806 41.5412 51.9695 41.5609 51.9498C41.5806 51.9301 41.5917 51.9034 41.5917 51.8755V29.442C41.5917 29.4141 41.6027 29.3874 41.6225 29.3677C41.6422 29.348 41.6689 29.3369 41.6968 29.3369H51.8707C53.911 29.3369 55.4501 29.7378 56.4444 30.5284C57.4387 31.319 57.9108 32.3973 57.9108 33.8475C57.9205 34.5385 57.7941 35.2246 57.5389 35.8668C57.2977 36.452 56.9169 36.9693 56.4299 37.3736C55.8737 37.8207 55.2348 38.1537 54.5496 38.3533C53.6794 38.6047 52.7764 38.7246 51.8707 38.709H48.2816C48.2628 38.7089 48.2442 38.7139 48.2279 38.7235C48.2117 38.7331 48.1983 38.7469 48.1892 38.7634C48.1801 38.78 48.1756 38.7987 48.1762 38.8175C48.1769 38.8364 48.1826 38.8547 48.1927 38.8707L51.7252 44.167H51.7624L56.9036 51.9272C56.9134 51.9418 56.9267 51.9536 56.9422 51.9618C56.9577 51.97 56.975 51.9742 56.9925 51.9741H64.3728C64.3863 51.9741 64.3996 51.9705 64.4112 51.9635C64.4228 51.9565 64.4323 51.9465 64.4386 51.9345C64.445 51.9225 64.4479 51.909 64.4471 51.8955C64.4463 51.882 64.4419 51.8689 64.4342 51.8577L58.4912 43.1226Z" fill="#F6F6EB"/>
<path d="M95.8307 45.9131C95.8307 45.8946 95.8233 45.877 95.8103 45.8639C95.7973 45.8509 95.7796 45.8436 95.7611 45.8436H91.9392C88.8071 45.8436 85.6761 45.8436 82.5461 45.8436C82.084 45.8426 81.6223 45.8129 81.1638 45.7546C77.6297 45.3036 74.8053 42.0103 74.7196 38.2515C74.6711 35.9363 75.4762 33.8087 76.983 32.2615C77.6722 31.5555 78.4965 30.9954 79.4066 30.6146C80.3168 30.2338 81.2944 30.0401 82.281 30.045C86.8078 30.045 90.8754 30.045 95.4103 30.045H95.7159C95.7435 30.0446 95.7698 30.0333 95.7891 30.0137C95.8085 29.994 95.8193 29.9675 95.8193 29.9399V24.0389C95.8189 24.0112 95.8077 23.9847 95.7881 23.9651C95.7685 23.9455 95.742 23.9343 95.7143 23.9338H90.9805C87.9627 23.9338 84.9486 23.9365 81.9382 23.9419C81.2096 23.9333 80.4815 23.9874 79.7621 24.1036C72.6971 25.342 67.9068 31.9447 68.6197 39.4624C69.2664 46.327 74.8716 51.8011 81.3918 51.924L88.0203 51.9321H95.7628C95.7812 51.9321 95.7989 51.9248 95.8119 51.9117C95.825 51.8987 95.8323 51.881 95.8323 51.8626L95.8307 45.9131Z" fill="#F6F6EB"/>
<path d="M6.23082 23.9355C6.23082 23.9217 6.2281 23.908 6.22282 23.8952C6.21754 23.8825 6.2098 23.8709 6.20004 23.8612C6.19028 23.8514 6.17869 23.8437 6.16594 23.8384C6.15319 23.8331 6.13953 23.8304 6.12573 23.8304H0.105086C0.0772154 23.8304 0.0504865 23.8414 0.030779 23.8612C0.0110715 23.8809 0 23.9076 0 23.9355V51.8949C0 51.9228 0.0110715 51.9495 0.030779 51.9692C0.0504865 51.9889 0.0772154 52 0.105086 52H6.12573C6.13953 52 6.15319 51.9973 6.16594 51.992C6.17869 51.9867 6.19028 51.979 6.20004 51.9692C6.2098 51.9595 6.21754 51.9479 6.22282 51.9351C6.2281 51.9224 6.23082 51.9087 6.23082 51.8949V40.8091" fill="#F6F6EB"/>
<path d="M29.0568 23.8304H23.0216C22.9937 23.8304 22.967 23.8414 22.9473 23.8612C22.9276 23.8809 22.9165 23.9076 22.9165 23.9355V35.018C22.9161 35.0458 22.9049 35.0723 22.8853 35.0919C22.8657 35.1115 22.8392 35.1227 22.8114 35.1231H11.8049C11.7628 35.1231 11.7213 35.1328 11.6837 35.1516C11.6461 35.1704 11.6134 35.1978 11.5882 35.2314L7.62564 40.5957C7.61814 40.6058 7.6136 40.6179 7.61254 40.6304C7.61149 40.643 7.61395 40.6556 7.61965 40.6668C7.62536 40.6781 7.63409 40.6875 7.64485 40.6941C7.65562 40.7007 7.668 40.7041 7.68061 40.704H22.8147C22.8425 40.704 22.8693 40.7151 22.889 40.7348C22.9087 40.7545 22.9198 40.7812 22.9198 40.8091V51.8949C22.9198 51.9228 22.9308 51.9495 22.9505 51.9692C22.9702 51.9889 22.997 52 23.0248 52H29.06C29.0879 52 29.1146 51.9889 29.1344 51.9692C29.1541 51.9495 29.1651 51.9228 29.1651 51.8949V23.9355C29.1651 23.9076 29.1541 23.8809 29.1344 23.8612C29.1146 23.8414 29.0879 23.8304 29.06 23.8304" fill="#F6F6EB"/>
<path d="M118.741 15.0807V20.888C118.741 20.8979 118.739 20.9078 118.735 20.917C118.732 20.9263 118.726 20.9346 118.719 20.9417C118.712 20.9487 118.704 20.9543 118.694 20.9582C118.685 20.962 118.675 20.9639 118.665 20.9639H109.717C109.697 20.9644 109.679 20.9723 109.665 20.9862C109.651 21 109.643 21.0187 109.642 21.0383V29.9868C109.642 30.007 109.634 30.0263 109.62 30.0405C109.606 30.0548 109.587 30.0628 109.566 30.0628H103.759C103.739 30.0624 103.72 30.0542 103.707 30.04C103.693 30.0258 103.685 30.0067 103.685 29.9868V15.0807C103.685 15.0611 103.693 15.0424 103.707 15.0286C103.721 15.0147 103.74 15.0068 103.759 15.0063H118.665C118.685 15.0063 118.704 15.0141 118.718 15.028C118.733 15.0419 118.741 15.0608 118.741 15.0807Z" fill="#E1251B"/>
<path d="M88.6768 14.9805V9.17324C88.6772 9.15336 88.6854 9.13445 88.6996 9.12055C88.7138 9.10665 88.7329 9.09886 88.7527 9.09887H97.6996C97.7096 9.09887 97.7195 9.0969 97.7287 9.09308C97.7379 9.08926 97.7463 9.08367 97.7534 9.07661C97.7604 9.06956 97.766 9.06118 97.7698 9.05196C97.7737 9.04274 97.7756 9.03286 97.7756 9.02288V0.0743687C97.776 0.0547743 97.784 0.036097 97.7979 0.0222386C97.8117 0.00838016 97.8304 0.000412652 97.85 1.94958e-09H103.659C103.679 -4.49733e-06 103.698 0.0077788 103.712 0.0216811C103.726 0.0355833 103.734 0.0544976 103.735 0.0743687V14.9805C103.735 15.0006 103.727 15.02 103.713 15.0342C103.698 15.0485 103.679 15.0565 103.659 15.0565H88.7527C88.7428 15.0565 88.7329 15.0545 88.7237 15.0507C88.7144 15.0469 88.7061 15.0413 88.699 15.0342C88.692 15.0271 88.6864 15.0188 88.6825 15.0096C88.6787 15.0003 88.6768 14.9905 88.6768 14.9805Z" fill="#E1251B"/>
</svg>
