<svg width="52" height="34" viewBox="0 0 52 34" fill="none" xmlns="http://www.w3.org/2000/svg">
<path d="M0 17C0 7.61116 7.61116 0 17 0H34.9269C44.3157 0 51.9269 7.61116 51.9269 17C51.9269 26.3888 44.3158 34 34.9269 34H17C7.61117 34 0 26.3888 0 17Z" fill="#141414"/>
<path d="M35.9267 17.0329V20.8963C35.9267 20.9029 35.9254 20.9095 35.9229 20.9156C35.9204 20.9218 35.9166 20.9273 35.912 20.932C35.9073 20.9367 35.9017 20.9404 35.8956 20.943C35.8895 20.9455 35.883 20.9468 35.8764 20.9468H29.9453C29.9323 20.9471 29.9199 20.9524 29.9107 20.9616C29.9015 20.9708 29.8962 20.9833 29.896 20.9963V26.9495C29.896 26.9629 29.8907 26.9758 29.8812 26.9853C29.8718 26.9947 29.859 27.0001 29.8456 27.0001H25.9966C25.9834 26.9998 25.9709 26.9943 25.9616 26.9849C25.9524 26.9754 25.9473 26.9627 25.9473 26.9495V17.0329C25.9475 17.0198 25.9528 17.0074 25.962 16.9982C25.9712 16.989 25.9836 16.9837 25.9966 16.9834H35.8764C35.8895 16.9834 35.9022 16.9886 35.9116 16.9978C35.921 17.0071 35.9264 17.0197 35.9267 17.0329Z" fill="white"/>
<path d="M16 16.9661V13.1027C16.0003 13.0895 16.0057 13.0769 16.0151 13.0677C16.0245 13.0584 16.0372 13.0532 16.0504 13.0532H21.9804C21.987 13.0532 21.9936 13.0519 21.9997 13.0494C22.0058 13.0469 22.0113 13.0431 22.016 13.0384C22.0207 13.0337 22.0244 13.0282 22.0269 13.022C22.0294 13.0159 22.0307 13.0093 22.0307 13.0027V7.04948C22.031 7.03644 22.0363 7.02401 22.0455 7.01479C22.0547 7.00558 22.0671 7.00027 22.08 7H25.9302C25.9433 7 25.956 7.00518 25.9654 7.01442C25.9748 7.02367 25.9802 7.03626 25.9805 7.04948V16.9661C25.9805 16.9795 25.9752 16.9924 25.9658 17.0019C25.9563 17.0113 25.9435 17.0167 25.9302 17.0167H16.0504C16.0437 17.0167 16.0372 17.0154 16.0311 17.0128C16.025 17.0103 16.0194 17.0066 16.0147 17.0019C16.0101 16.9972 16.0064 16.9916 16.0038 16.9855C16.0013 16.9793 16 16.9728 16 16.9661Z" fill="white"/>
</svg>
